<mxfile modified="2023-01-31T21:53:32.743Z" host="app.diagrams.net" agent="5.0 (Macintosh; Intel Mac OS X 10_15_7) AppleWebKit/537.36 (KHTML, like Gecko) Chrome/109.0.0.0 Safari/537.36" etag="hUt4PtOJ-_lmVXCr6DXZ" version="20.8.14" type="github">
  <diagram id="Ht1M8jgEwFfnCIfOTk4-" name="Page-1">
    <mxGraphModel dx="1605" dy="1810" grid="1" gridSize="10" guides="1" tooltips="1" connect="1" arrows="1" fold="1" page="1" pageScale="1" pageWidth="1169" pageHeight="827" math="0" shadow="0">
      <root>
        <mxCell id="0" />
        <mxCell id="1" parent="0" />
        <mxCell id="UEzPUAAOIrF-is8g5C7q-176" value="&amp;nbsp; &amp;nbsp; dags" style="points=[[0,0],[0.25,0],[0.5,0],[0.75,0],[1,0],[1,0.25],[1,0.5],[1,0.75],[1,1],[0.75,1],[0.5,1],[0.25,1],[0,1],[0,0.75],[0,0.5],[0,0.25]];outlineConnect=0;gradientColor=none;html=1;whiteSpace=wrap;fontSize=12;fontStyle=0;shape=mxgraph.aws4.group;grIcon=mxgraph.aws4.group_aws_cloud_alt;strokeColor=#232F3E;fillColor=none;verticalAlign=top;align=left;spacingLeft=30;fontColor=#232F3E;dashed=0;labelBackgroundColor=#ffffff;container=1;pointerEvents=0;collapsible=0;recursiveResize=0;" parent="1" vertex="1">
          <mxGeometry x="243" y="-600" width="917" height="510" as="geometry" />
        </mxCell>
        <mxCell id="LUkZF66Wxw7TiblQxwdm-42" style="edgeStyle=orthogonalEdgeStyle;rounded=0;orthogonalLoop=1;jettySize=auto;html=1;entryX=0;entryY=0.5;entryDx=0;entryDy=0;fontSize=12;fontColor=#000033;dashed=1;dashPattern=1 2;strokeWidth=1;sourcePerimeterSpacing=0;" edge="1" parent="UEzPUAAOIrF-is8g5C7q-176" source="LUkZF66Wxw7TiblQxwdm-3" target="LUkZF66Wxw7TiblQxwdm-20">
          <mxGeometry relative="1" as="geometry" />
        </mxCell>
        <mxCell id="LUkZF66Wxw7TiblQxwdm-3" value="data.ocean.subscriptions" style="rounded=1;fillColor=#d5e8d4;strokeColor=#82b366;dashed=1;dashPattern=1 1;align=center;whiteSpace=wrap;html=1;labelBorderColor=none;labelBackgroundColor=none;" vertex="1" parent="UEzPUAAOIrF-is8g5C7q-176">
          <mxGeometry x="40" y="65" width="140" height="27.5" as="geometry" />
        </mxCell>
        <mxCell id="LUkZF66Wxw7TiblQxwdm-51" style="edgeStyle=orthogonalEdgeStyle;rounded=0;orthogonalLoop=1;jettySize=auto;html=1;entryX=0;entryY=0.5;entryDx=0;entryDy=0;dashed=1;dashPattern=1 2;strokeWidth=1;fontSize=12;fontColor=#000033;endArrow=classic;endFill=1;sourcePerimeterSpacing=0;" edge="1" parent="UEzPUAAOIrF-is8g5C7q-176" source="LUkZF66Wxw7TiblQxwdm-8" target="LUkZF66Wxw7TiblQxwdm-43">
          <mxGeometry relative="1" as="geometry" />
        </mxCell>
        <mxCell id="LUkZF66Wxw7TiblQxwdm-8" value="data.ocean.ipsy" style="rounded=1;fillColor=#d5e8d4;strokeColor=#82b366;dashed=1;dashPattern=1 1;align=center;whiteSpace=wrap;html=1;labelBorderColor=none;labelBackgroundColor=none;" vertex="1" parent="UEzPUAAOIrF-is8g5C7q-176">
          <mxGeometry x="40" y="195" width="140" height="27.5" as="geometry" />
        </mxCell>
        <mxCell id="LUkZF66Wxw7TiblQxwdm-20" value="&lt;p style=&quot;line-height: 0%;&quot;&gt;&lt;font color=&quot;#000033&quot;&gt;&lt;span style=&quot;&quot;&gt;&amp;nbsp; &amp;nbsp; &amp;nbsp; &amp;nbsp; &amp;nbsp; &amp;nbsp; &amp;nbsp;tasks&lt;/span&gt;&lt;/font&gt;&lt;/p&gt;" style="swimlane;startSize=0;shadow=0;labelBackgroundColor=none;labelBorderColor=none;sketch=0;strokeColor=default;strokeWidth=1;fontSize=12;fillColor=default;gradientColor=#4912FF;html=1;fontStyle=0;align=left;verticalAlign=top;labelPosition=center;verticalLabelPosition=middle;horizontal=1;" vertex="1" parent="UEzPUAAOIrF-is8g5C7q-176">
          <mxGeometry x="257" y="20" width="253" height="280" as="geometry">
            <mxRectangle x="690" y="-500" width="50" height="40" as="alternateBounds" />
          </mxGeometry>
        </mxCell>
        <mxCell id="LUkZF66Wxw7TiblQxwdm-22" value="&lt;p style=&quot;margin: 0px; font-variant-numeric: normal; font-variant-east-asian: normal; font-stretch: normal; line-height: normal; font-family: &amp;quot;Helvetica Neue&amp;quot;; text-align: start;&quot; class=&quot;p1&quot;&gt;&lt;font style=&quot;font-size: 12px;&quot;&gt;subscriptions_lifecycle&lt;/font&gt;&lt;/p&gt;" style="rounded=1;fillColor=#d80073;strokeColor=#A50040;dashed=1;dashPattern=1 1;align=center;whiteSpace=wrap;html=1;labelBorderColor=none;labelBackgroundColor=none;fontColor=#ffffff;" vertex="1" parent="LUkZF66Wxw7TiblQxwdm-20">
          <mxGeometry x="56.5" y="35" width="140" height="27.5" as="geometry" />
        </mxCell>
        <mxCell id="LUkZF66Wxw7TiblQxwdm-23" value="&lt;p style=&quot;margin: 0px; font-variant-numeric: normal; font-variant-east-asian: normal; font-stretch: normal; line-height: normal; font-family: &amp;quot;Helvetica Neue&amp;quot;; text-align: start;&quot; class=&quot;p1&quot;&gt;&lt;font style=&quot;font-size: 12px;&quot;&gt;subscriptions_cycle&lt;/font&gt;&lt;/p&gt;" style="rounded=1;fillColor=#d80073;strokeColor=#A50040;dashed=1;dashPattern=1 1;align=center;whiteSpace=wrap;html=1;labelBorderColor=none;labelBackgroundColor=none;fontColor=#ffffff;" vertex="1" parent="LUkZF66Wxw7TiblQxwdm-20">
          <mxGeometry x="56.5" y="71" width="140" height="27.5" as="geometry" />
        </mxCell>
        <mxCell id="LUkZF66Wxw7TiblQxwdm-24" value="&lt;p style=&quot;margin: 0px; font-variant-numeric: normal; font-variant-east-asian: normal; font-stretch: normal; line-height: normal; font-family: &amp;quot;Helvetica Neue&amp;quot;; text-align: start;&quot; class=&quot;p1&quot;&gt;&lt;font style=&quot;font-size: 12px;&quot;&gt;subscriptions_subscription_item&lt;/font&gt;&lt;/p&gt;" style="rounded=1;fillColor=#d80073;strokeColor=#A50040;dashed=1;dashPattern=1 1;align=center;whiteSpace=wrap;html=1;labelBorderColor=none;labelBackgroundColor=none;fontColor=#ffffff;" vertex="1" parent="LUkZF66Wxw7TiblQxwdm-20">
          <mxGeometry x="26.5" y="110" width="200" height="27.5" as="geometry" />
        </mxCell>
        <mxCell id="LUkZF66Wxw7TiblQxwdm-33" value="&lt;p style=&quot;margin: 0px; font-variant-numeric: normal; font-variant-east-asian: normal; font-stretch: normal; line-height: normal; font-family: &amp;quot;Helvetica Neue&amp;quot;; text-align: start;&quot; class=&quot;p1&quot;&gt;&lt;font style=&quot;font-size: 12px;&quot;&gt;subscriptions_personalized_product&lt;/font&gt;&lt;/p&gt;" style="rounded=1;fillColor=#d80073;strokeColor=#A50040;dashed=1;dashPattern=1 1;align=center;whiteSpace=wrap;html=1;labelBorderColor=none;labelBackgroundColor=none;fontColor=#ffffff;" vertex="1" parent="LUkZF66Wxw7TiblQxwdm-20">
          <mxGeometry x="10.75" y="151" width="231.5" height="27.5" as="geometry" />
        </mxCell>
        <mxCell id="LUkZF66Wxw7TiblQxwdm-26" value="&lt;p style=&quot;margin: 0px; font-variant-numeric: normal; font-variant-east-asian: normal; font-stretch: normal; line-height: normal; font-family: &amp;quot;Helvetica Neue&amp;quot;; text-align: start;&quot; class=&quot;p1&quot;&gt;&lt;font style=&quot;font-size: 12px;&quot;&gt;subscriptions_personalized_product_price&lt;/font&gt;&lt;/p&gt;" style="rounded=1;fillColor=#d80073;strokeColor=#A50040;dashed=1;dashPattern=1 1;align=center;whiteSpace=wrap;html=1;labelBorderColor=none;labelBackgroundColor=none;fontColor=#ffffff;" vertex="1" parent="LUkZF66Wxw7TiblQxwdm-20">
          <mxGeometry x="10.75" y="191" width="231.5" height="27.5" as="geometry" />
        </mxCell>
        <mxCell id="LUkZF66Wxw7TiblQxwdm-25" value="&lt;p style=&quot;margin: 0px; font-variant-numeric: normal; font-variant-east-asian: normal; font-stretch: normal; line-height: normal; font-family: &amp;quot;Helvetica Neue&amp;quot;; text-align: start;&quot; class=&quot;p1&quot;&gt;&lt;font style=&quot;font-size: 12px;&quot;&gt;subscriptions_subscription&lt;/font&gt;&lt;/p&gt;" style="rounded=1;fillColor=#d80073;strokeColor=#A50040;dashed=1;dashPattern=1 1;align=center;whiteSpace=wrap;html=1;labelBorderColor=none;labelBackgroundColor=none;fontColor=#ffffff;" vertex="1" parent="LUkZF66Wxw7TiblQxwdm-20">
          <mxGeometry x="46.5" y="231" width="160" height="27.5" as="geometry" />
        </mxCell>
        <mxCell id="LUkZF66Wxw7TiblQxwdm-38" value="" style="shape=image;verticalLabelPosition=bottom;labelBackgroundColor=default;verticalAlign=top;aspect=fixed;imageAspect=0;image=https://d33wubrfki0l68.cloudfront.net/c951dd58ee04a836a9d63b23edba2a75f2aa74af/e0697/assets/images/run-img.webp;" vertex="1" parent="LUkZF66Wxw7TiblQxwdm-20">
          <mxGeometry width="42.46" height="30" as="geometry" />
        </mxCell>
        <mxCell id="LUkZF66Wxw7TiblQxwdm-41" value="" style="rounded=0;whiteSpace=wrap;html=1;shadow=0;labelBackgroundColor=#000033;labelBorderColor=none;sketch=0;strokeColor=none;strokeWidth=1;fontSize=12;fillColor=default;gradientColor=none;" vertex="1" parent="UEzPUAAOIrF-is8g5C7q-176">
          <mxGeometry width="25" height="25" as="geometry" />
        </mxCell>
        <mxCell id="LUkZF66Wxw7TiblQxwdm-40" value="" style="shape=image;verticalLabelPosition=bottom;labelBackgroundColor=default;verticalAlign=top;aspect=fixed;imageAspect=0;image=https://d33wubrfki0l68.cloudfront.net/b5a682ec03978171f8bb0a71f60d4727bc89afd6/13af9/assets/images/build-img.png;" vertex="1" parent="UEzPUAAOIrF-is8g5C7q-176">
          <mxGeometry width="43.48" height="30" as="geometry" />
        </mxCell>
        <mxCell id="LUkZF66Wxw7TiblQxwdm-43" value="&lt;p style=&quot;line-height: 0%;&quot;&gt;&lt;font color=&quot;#000033&quot;&gt;&lt;span style=&quot;&quot;&gt;&amp;nbsp; &amp;nbsp; &amp;nbsp; &amp;nbsp; &amp;nbsp; &amp;nbsp; &amp;nbsp;tasks&lt;/span&gt;&lt;/font&gt;&lt;/p&gt;" style="swimlane;startSize=0;shadow=0;labelBackgroundColor=none;labelBorderColor=none;sketch=0;strokeColor=default;strokeWidth=1;fontSize=12;fillColor=default;gradientColor=#4912FF;html=1;fontStyle=0;align=left;verticalAlign=top;labelPosition=center;verticalLabelPosition=middle;horizontal=1;" vertex="1" parent="UEzPUAAOIrF-is8g5C7q-176">
          <mxGeometry x="257" y="320" width="253" height="80" as="geometry">
            <mxRectangle x="690" y="-500" width="50" height="40" as="alternateBounds" />
          </mxGeometry>
        </mxCell>
        <mxCell id="LUkZF66Wxw7TiblQxwdm-44" value="&lt;p style=&quot;margin: 0px; font-variant-numeric: normal; font-variant-east-asian: normal; font-stretch: normal; line-height: normal; font-family: &amp;quot;Helvetica Neue&amp;quot;; text-align: start;&quot; class=&quot;p1&quot;&gt;&lt;font style=&quot;font-size: 12px;&quot;&gt;ipsy_physical_address&lt;/font&gt;&lt;/p&gt;" style="rounded=1;fillColor=#d80073;strokeColor=#A50040;dashed=1;dashPattern=1 1;align=center;whiteSpace=wrap;html=1;labelBorderColor=none;labelBackgroundColor=none;fontColor=#ffffff;" vertex="1" parent="LUkZF66Wxw7TiblQxwdm-43">
          <mxGeometry x="56.5" y="35" width="140" height="27.5" as="geometry" />
        </mxCell>
        <mxCell id="LUkZF66Wxw7TiblQxwdm-50" value="" style="shape=image;verticalLabelPosition=bottom;labelBackgroundColor=default;verticalAlign=top;aspect=fixed;imageAspect=0;image=https://d33wubrfki0l68.cloudfront.net/c951dd58ee04a836a9d63b23edba2a75f2aa74af/e0697/assets/images/run-img.webp;" vertex="1" parent="LUkZF66Wxw7TiblQxwdm-43">
          <mxGeometry width="42.46" height="30" as="geometry" />
        </mxCell>
        <mxCell id="LUkZF66Wxw7TiblQxwdm-52" value="services.uts.lifecycle" style="rounded=1;fillColor=#d5e8d4;strokeColor=#82b366;dashed=1;dashPattern=1 1;align=center;whiteSpace=wrap;html=1;labelBorderColor=none;labelBackgroundColor=none;" vertex="1" parent="UEzPUAAOIrF-is8g5C7q-176">
          <mxGeometry x="595" y="72" width="140" height="27.5" as="geometry" />
        </mxCell>
        <mxCell id="LUkZF66Wxw7TiblQxwdm-53" style="edgeStyle=orthogonalEdgeStyle;rounded=1;orthogonalLoop=1;jettySize=auto;html=1;dashed=1;dashPattern=12 12;strokeWidth=1;fontSize=12;fontColor=#000033;endArrow=classic;endFill=1;sourcePerimeterSpacing=0;fillColor=#a20025;strokeColor=#6F0000;" edge="1" parent="UEzPUAAOIrF-is8g5C7q-176" source="LUkZF66Wxw7TiblQxwdm-22" target="LUkZF66Wxw7TiblQxwdm-52">
          <mxGeometry relative="1" as="geometry" />
        </mxCell>
        <mxCell id="LUkZF66Wxw7TiblQxwdm-54" style="edgeStyle=orthogonalEdgeStyle;rounded=1;orthogonalLoop=1;jettySize=auto;html=1;dashed=1;dashPattern=12 12;strokeWidth=1;fontSize=12;fontColor=#000033;endArrow=classic;endFill=1;sourcePerimeterSpacing=0;fillColor=#a20025;strokeColor=#6F0000;" edge="1" parent="UEzPUAAOIrF-is8g5C7q-176" source="LUkZF66Wxw7TiblQxwdm-23" target="LUkZF66Wxw7TiblQxwdm-52">
          <mxGeometry relative="1" as="geometry" />
        </mxCell>
        <mxCell id="LUkZF66Wxw7TiblQxwdm-55" value="services.uts.membership" style="rounded=1;fillColor=#d5e8d4;strokeColor=#82b366;dashed=1;dashPattern=1 1;align=center;whiteSpace=wrap;html=1;labelBorderColor=none;labelBackgroundColor=none;" vertex="1" parent="UEzPUAAOIrF-is8g5C7q-176">
          <mxGeometry x="595" y="130" width="140" height="27.5" as="geometry" />
        </mxCell>
        <mxCell id="LUkZF66Wxw7TiblQxwdm-56" style="edgeStyle=orthogonalEdgeStyle;rounded=1;orthogonalLoop=1;jettySize=auto;html=1;entryX=0;entryY=0.5;entryDx=0;entryDy=0;dashed=1;dashPattern=12 12;strokeWidth=1;fontSize=12;fontColor=#000033;endArrow=classic;endFill=1;sourcePerimeterSpacing=0;fillColor=#fa6800;strokeColor=#C73500;" edge="1" parent="UEzPUAAOIrF-is8g5C7q-176" source="LUkZF66Wxw7TiblQxwdm-24" target="LUkZF66Wxw7TiblQxwdm-55">
          <mxGeometry relative="1" as="geometry" />
        </mxCell>
        <mxCell id="LUkZF66Wxw7TiblQxwdm-57" style="edgeStyle=orthogonalEdgeStyle;rounded=1;orthogonalLoop=1;jettySize=auto;html=1;entryX=0;entryY=0.5;entryDx=0;entryDy=0;dashed=1;dashPattern=12 12;strokeWidth=1;fontSize=12;fontColor=#000033;endArrow=classic;endFill=1;sourcePerimeterSpacing=0;fillColor=#fa6800;strokeColor=#C73500;" edge="1" parent="UEzPUAAOIrF-is8g5C7q-176" source="LUkZF66Wxw7TiblQxwdm-33" target="LUkZF66Wxw7TiblQxwdm-55">
          <mxGeometry relative="1" as="geometry">
            <Array as="points">
              <mxPoint x="537" y="185" />
              <mxPoint x="537" y="144" />
            </Array>
          </mxGeometry>
        </mxCell>
        <mxCell id="LUkZF66Wxw7TiblQxwdm-58" style="edgeStyle=orthogonalEdgeStyle;rounded=1;orthogonalLoop=1;jettySize=auto;html=1;entryX=0;entryY=0.5;entryDx=0;entryDy=0;dashed=1;dashPattern=12 12;strokeWidth=1;fontSize=12;fontColor=#000033;endArrow=classic;endFill=1;sourcePerimeterSpacing=0;fillColor=#fa6800;strokeColor=#C73500;" edge="1" parent="UEzPUAAOIrF-is8g5C7q-176" source="LUkZF66Wxw7TiblQxwdm-26" target="LUkZF66Wxw7TiblQxwdm-55">
          <mxGeometry relative="1" as="geometry">
            <Array as="points">
              <mxPoint x="537" y="225" />
              <mxPoint x="537" y="144" />
            </Array>
          </mxGeometry>
        </mxCell>
        <mxCell id="LUkZF66Wxw7TiblQxwdm-59" style="edgeStyle=orthogonalEdgeStyle;rounded=1;orthogonalLoop=1;jettySize=auto;html=1;entryX=0;entryY=0.5;entryDx=0;entryDy=0;dashed=1;dashPattern=12 12;strokeWidth=1;fontSize=12;fontColor=#000033;endArrow=classic;endFill=1;sourcePerimeterSpacing=0;fillColor=#fa6800;strokeColor=#C73500;exitX=1;exitY=0.75;exitDx=0;exitDy=0;" edge="1" parent="UEzPUAAOIrF-is8g5C7q-176" source="LUkZF66Wxw7TiblQxwdm-25" target="LUkZF66Wxw7TiblQxwdm-55">
          <mxGeometry relative="1" as="geometry">
            <Array as="points">
              <mxPoint x="537" y="272" />
              <mxPoint x="537" y="144" />
            </Array>
          </mxGeometry>
        </mxCell>
        <mxCell id="LUkZF66Wxw7TiblQxwdm-60" style="edgeStyle=orthogonalEdgeStyle;rounded=1;orthogonalLoop=1;jettySize=auto;html=1;entryX=0;entryY=0.5;entryDx=0;entryDy=0;dashed=1;dashPattern=12 12;strokeWidth=1;fontSize=12;fontColor=#000033;endArrow=classic;endFill=1;sourcePerimeterSpacing=0;fillColor=#fa6800;strokeColor=#C73500;exitX=1;exitY=0.75;exitDx=0;exitDy=0;" edge="1" parent="UEzPUAAOIrF-is8g5C7q-176" source="LUkZF66Wxw7TiblQxwdm-44" target="LUkZF66Wxw7TiblQxwdm-55">
          <mxGeometry relative="1" as="geometry">
            <Array as="points">
              <mxPoint x="537" y="376" />
              <mxPoint x="537" y="144" />
            </Array>
          </mxGeometry>
        </mxCell>
        <mxCell id="LUkZF66Wxw7TiblQxwdm-61" value="services.uts.physical_address" style="rounded=1;fillColor=#d5e8d4;strokeColor=#82b366;dashed=1;dashPattern=1 1;align=center;whiteSpace=wrap;html=1;labelBorderColor=none;labelBackgroundColor=none;" vertex="1" parent="UEzPUAAOIrF-is8g5C7q-176">
          <mxGeometry x="596.5" y="244" width="165" height="27.5" as="geometry" />
        </mxCell>
        <mxCell id="LUkZF66Wxw7TiblQxwdm-64" value="services.uts.refreshment_membership" style="rounded=1;fillColor=#d5e8d4;strokeColor=#82b366;dashed=1;dashPattern=1 1;align=center;whiteSpace=wrap;html=1;labelBorderColor=none;labelBackgroundColor=none;" vertex="1" parent="UEzPUAAOIrF-is8g5C7q-176">
          <mxGeometry x="596.5" y="355" width="207.5" height="27.5" as="geometry" />
        </mxCell>
        <mxCell id="LUkZF66Wxw7TiblQxwdm-68" style="edgeStyle=orthogonalEdgeStyle;rounded=1;orthogonalLoop=1;jettySize=auto;html=1;strokeWidth=1;fontSize=12;fontColor=#000033;endArrow=classic;endFill=1;sourcePerimeterSpacing=0;strokeColor=#97D077;dashed=1;dashPattern=12 12;" edge="1" parent="UEzPUAAOIrF-is8g5C7q-176" source="LUkZF66Wxw7TiblQxwdm-44" target="LUkZF66Wxw7TiblQxwdm-64">
          <mxGeometry relative="1" as="geometry" />
        </mxCell>
        <mxCell id="LUkZF66Wxw7TiblQxwdm-69" style="edgeStyle=orthogonalEdgeStyle;rounded=1;orthogonalLoop=1;jettySize=auto;html=1;entryX=0;entryY=0.5;entryDx=0;entryDy=0;strokeWidth=1;fontSize=12;fontColor=#000033;endArrow=classic;endFill=1;sourcePerimeterSpacing=0;strokeColor=#97D077;fillColor=#008a00;dashed=1;dashPattern=12 12;" edge="1" parent="UEzPUAAOIrF-is8g5C7q-176" source="LUkZF66Wxw7TiblQxwdm-25" target="LUkZF66Wxw7TiblQxwdm-64">
          <mxGeometry relative="1" as="geometry">
            <Array as="points">
              <mxPoint x="527" y="265" />
              <mxPoint x="527" y="369" />
            </Array>
          </mxGeometry>
        </mxCell>
        <mxCell id="LUkZF66Wxw7TiblQxwdm-74" style="edgeStyle=orthogonalEdgeStyle;rounded=1;orthogonalLoop=1;jettySize=auto;html=1;exitX=1;exitY=0.25;exitDx=0;exitDy=0;entryX=0;entryY=0.5;entryDx=0;entryDy=0;strokeColor=#3333FF;strokeWidth=1;fontSize=12;fontColor=#000033;endArrow=classic;endFill=1;sourcePerimeterSpacing=0;dashed=1;dashPattern=12 12;" edge="1" parent="UEzPUAAOIrF-is8g5C7q-176" source="LUkZF66Wxw7TiblQxwdm-25" target="LUkZF66Wxw7TiblQxwdm-61">
          <mxGeometry relative="1" as="geometry" />
        </mxCell>
        <mxCell id="LUkZF66Wxw7TiblQxwdm-75" style="edgeStyle=orthogonalEdgeStyle;rounded=1;orthogonalLoop=1;jettySize=auto;html=1;exitX=1;exitY=0.25;exitDx=0;exitDy=0;entryX=0;entryY=0.5;entryDx=0;entryDy=0;strokeColor=#3333FF;strokeWidth=1;fontSize=12;fontColor=#000033;endArrow=classic;endFill=1;sourcePerimeterSpacing=0;dashed=1;dashPattern=12 12;" edge="1" parent="UEzPUAAOIrF-is8g5C7q-176" source="LUkZF66Wxw7TiblQxwdm-44" target="LUkZF66Wxw7TiblQxwdm-61">
          <mxGeometry relative="1" as="geometry">
            <Array as="points">
              <mxPoint x="517" y="362" />
              <mxPoint x="517" y="258" />
            </Array>
          </mxGeometry>
        </mxCell>
        <mxCell id="UEzPUAAOIrF-is8g5C7q-175" value="AWS Cloud" style="points=[[0,0],[0.25,0],[0.5,0],[0.75,0],[1,0],[1,0.25],[1,0.5],[1,0.75],[1,1],[0.75,1],[0.5,1],[0.25,1],[0,1],[0,0.75],[0,0.5],[0,0.25]];outlineConnect=0;gradientColor=none;html=1;whiteSpace=wrap;fontSize=12;fontStyle=0;shape=mxgraph.aws4.group;grIcon=mxgraph.aws4.group_aws_cloud_alt;strokeColor=#232F3E;fillColor=none;verticalAlign=top;align=left;spacingLeft=30;fontColor=#232F3E;dashed=0;labelBackgroundColor=#ffffff;container=1;pointerEvents=0;collapsible=0;recursiveResize=0;" parent="1" vertex="1">
          <mxGeometry x="243" y="-789.5" width="917" height="159.5" as="geometry" />
        </mxCell>
        <mxCell id="LUkZF66Wxw7TiblQxwdm-1" value="Managed Airflow" style="sketch=0;points=[[0,0,0],[0.25,0,0],[0.5,0,0],[0.75,0,0],[1,0,0],[0,1,0],[0.25,1,0],[0.5,1,0],[0.75,1,0],[1,1,0],[0,0.25,0],[0,0.5,0],[0,0.75,0],[1,0.25,0],[1,0.5,0],[1,0.75,0]];outlineConnect=0;fontColor=#232F3E;gradientColor=#FF4F8B;gradientDirection=north;fillColor=#BC1356;strokeColor=#ffffff;dashed=0;verticalLabelPosition=bottom;verticalAlign=top;align=center;html=1;fontSize=12;fontStyle=0;aspect=fixed;shape=mxgraph.aws4.resourceIcon;resIcon=mxgraph.aws4.managed_workflows_for_apache_airflow;" vertex="1" parent="UEzPUAAOIrF-is8g5C7q-175">
          <mxGeometry x="20" y="40" width="78" height="78" as="geometry" />
        </mxCell>
        <mxCell id="LUkZF66Wxw7TiblQxwdm-5" value="" style="shape=image;verticalLabelPosition=bottom;labelBackgroundColor=default;verticalAlign=top;aspect=fixed;imageAspect=0;image=data:image/png,iVBORw0KGgoAAAANSUhEUgAAAOoAAADoCAYAAADhXHhFAAAMQGlDQ1BJQ0MgUHJvZmlsZQAASImVVwdYU8kWnluSkEBooUsJvQkiNYCUEFoA6UWwEZIAocQYCCp2ZFHBtaAiAjZ0VUSxA2JHFAuLYu+LBRVlXSzYlTcpoOu+8r3zfXPvf/85858z584tA4DaCY5IlIOqA5ArzBfHhgTQxyWn0ElPAQJQoA50gCmHmydiRkdHAGhD57/bu+vQG9oVB6nWP/v/q2nw+HlcAJBoiNN4edxciA8AgNdwReJ8AIhS3nxavkiKYQNaYpggxIukOEOOa6Q4TY73yHziY1kQtwGgpMLhiDMAUL0EeXoBNwNqqPZD7CTkCYQAqNEh9s3NncKDOBViG+gjgliqz0j7QSfjb5ppw5ocTsYwls9FZkqBgjxRDmfG/1mO/225OZKhGFawqWSKQ2Olc4Z1u5k9JVyKVSDuE6ZFRkGsCfEHAU/mDzFKyZSEJsj9UUNuHgvWDN5lgDrxOIHhEBtCHCzMiYxQ8GnpgmA2xHCFoNMF+ex4iPUgXsTPC4pT+GwUT4lVxEIb08UspoI/yxHL4kpj3ZdkJzAV+q8z+WyFPqZamBmfBDEFYosCQWIkxKoQO+Zlx4UrfMYUZrIih3zEklhp/hYQx/KFIQFyfawgXRwcq/Avzc0bmi+2MVPAjlTgffmZ8aHy+mBtXI4sfzgX7BJfyEwY0uHnjYsYmguPHxgknzv2jC9MiFPofBDlB8TKx+IUUU60wh834+eESHkziF3zCuIUY/HEfLgg5fp4uig/Ol6eJ16YxQmLlueDLwcRgAUCAR1IYEsDU0AWEHT2NfXBK3lPMOAAMcgAfOCgYIZGJMl6hPAYBwrBnxDxQd7wuABZLx8UQP7rMCs/OoB0WW+BbEQ2eAJxLggHOfBaIhslHI6WCB5DRvCP6BzYuDDfHNik/f+eH2K/M0zIRCgYyVBEutqQJzGIGEgMJQYTbXED3Bf3xiPg0R82Z5yBew7N47s/4Qmhi/CQcI3QTbg1WVAk/inLsaAb6gcrapH2Yy1wK6jphgfgPlAdKuM6uAFwwF1hHCbuByO7QZalyFtaFfpP2n+bwQ93Q+FHdiKjZF2yP9nm55GqdqpuwyrSWv9YH3muacP1Zg33/Byf9UP1efAc/rMntgjbj7VjJ7Fz2BGsCdCx41gz1oEdleLh1fVYtrqGosXK8smGOoJ/xBu6s9JK5jnVO/U6fZH35fOnS9/RgDVFNEMsyMjMpzPhF4FPZwu5jiPpzk7OLgBIvy/y19ebGNl3A9Hp+M4t+AMAn+ODg4OHv3NhxwHY6wEf/0PfORsG/HQoA3D2EFciLpBzuPRAgG8JNfik6QNjYA5s4HycgTvwBv4gCISBKBAPksEkmH0mXOdiMA3MAvNBCSgDy8FqUAU2gM1gO9gF9oEmcAScBGfABXAJXAN34OrpAS9AP3gHPiMIQkKoCA3RR0wQS8QecUYYiC8ShEQgsUgykopkIEJEgsxCFiBlSDlShWxC6pC9yCHkJHIO6UJuIQ+QXuQ18gnFUBVUCzVCrdBRKANlouFoPDoRzUCnooVoMboUrURr0Z1oI3oSvYBeQ7vRF+gABjBlTAczxRwwBsbCorAULB0TY3OwUqwCq8UasBZ4n69g3Vgf9hEn4jScjjvAFRyKJ+BcfCo+B1+CV+Hb8Ua8Db+CP8D78W8EKsGQYE/wIrAJ4wgZhGmEEkIFYSvhIOE0fJZ6CO+IRKIO0ZroAZ/FZGIWcSZxCXEdcTfxBLGL+Ig4QCKR9En2JB9SFIlDyieVkNaSdpKOky6TekgflJSVTJSclYKVUpSESkVKFUo7lI4pXVZ6qvSZrE62JHuRo8g88gzyMvIWcgv5IrmH/JmiQbGm+FDiKVmU+ZRKSgPlNOUu5Y2ysrKZsqdyjLJAeZ5ypfIe5bPKD5Q/qmiq2KmwVCaoSFSWqmxTOaFyS+UNlUq1ovpTU6j51KXUOuop6n3qB1WaqqMqW5WnOle1WrVR9bLqSzWymqUaU22SWqFahdp+tYtqfepkdSt1ljpHfY56tfoh9RvqAxo0jdEaURq5Gks0dmic03imSdK00gzS5GkWa27WPKX5iIbRzGksGpe2gLaFdprWo0XUstZia2VplWnt0urU6tfW1HbVTtSerl2tfVS7WwfTsdJh6+ToLNPZp3Nd55OukS5Tl6+7WLdB97Lue70Rev56fL1Svd161/Q+6dP1g/Sz9VfoN+nfM8AN7AxiDKYZrDc4bdA3QmuE9wjuiNIR+0bcNkQN7QxjDWcabjbsMBwwMjYKMRIZrTU6ZdRnrGPsb5xlvMr4mHGvCc3E10RgssrkuMlzujadSc+hV9Lb6P2mhqahphLTTaadpp/NrM0SzIrMdpvdM6eYM8zTzVeZt5r3W5hYjLWYZVFvcduSbMmwzLRcY9lu+d7K2irJaqFVk9Uzaz1rtnWhdb31XRuqjZ/NVJtam6u2RFuGbbbtOttLdqidm12mXbXdRXvU3t1eYL/OvmskYaTnSOHI2pE3HFQcmA4FDvUODxx1HCMcixybHF+OshiVMmrFqPZR35zcnHKctjjdGa05Omx00eiW0a+d7Zy5ztXOV12oLsEuc12aXV652rvyXde73nSjuY11W+jW6vbV3cNd7N7g3uth4ZHqUeNxg6HFiGYsYZz1JHgGeM71POL50cvdK99rn9df3g7e2d47vJ+NsR7DH7NlzCMfMx+Ozyafbl+6b6rvRt9uP1M/jl+t30N/c3+e/1b/p0xbZhZzJ/NlgFOAOOBgwHuWF2s260QgFhgSWBrYGaQZlBBUFXQ/2Cw4I7g+uD/ELWRmyIlQQmh46IrQG2wjNpddx+4P8wibHdYWrhIeF14V/jDCLkIc0TIWHRs2duXYu5GWkcLIpigQxY5aGXUv2jp6avThGGJMdEx1zJPY0bGzYtvjaHGT43bEvYsPiF8WfyfBJkGS0JqoljghsS7xfVJgUnlS97hR42aPu5BskCxIbk4hpSSmbE0ZGB80fvX4ngluE0omXJ9oPXH6xHOTDCblTDo6WW0yZ/L+VEJqUuqO1C+cKE4tZyCNnVaT1s9lcddwX/D8eat4vXwffjn/abpPenn6swyfjJUZvZl+mRWZfQKWoErwKis0a0PW++yo7G3ZgzlJObtzlXJTcw8JNYXZwrYpxlOmT+kS2YtKRN1TvaauntovDhdvzUPyJuY152vBH/kOiY3kF8mDAt+C6oIP0xKn7Z+uMV04vWOG3YzFM54WBhf+NhOfyZ3ZOst01vxZD2YzZ2+ag8xJm9M613xu8dyeeSHzts+nzM+e/3uRU1F50dsFSQtaio2K5xU/+iXkl/oS1RJxyY2F3gs3LMIXCRZ1LnZZvHbxt1Je6fkyp7KKsi9LuEvO/zr618pfB5emL+1c5r5s/XLicuHy6yv8Vmwv1ygvLH+0cuzKxlX0VaWr3q6evPpchWvFhjWUNZI13ZURlc1rLdYuX/ulKrPqWnVA9e4aw5rFNe/X8dZdXu+/vmGD0YayDZ82Cjbe3BSyqbHWqrZiM3FzweYnWxK3tP/G+K1uq8HWsq1ftwm3dW+P3d5W51FXt8Nwx7J6tF5S37tzws5LuwJ3NTc4NGzarbO7bA/YI9nzfG/q3uv7wve17mfsbzhgeaDmIO1gaSPSOKOxvymzqbs5ubnrUNih1hbvloOHHQ9vO2J6pPqo9tFlxyjHio8NHi88PnBCdKLvZMbJR62TW++cGnfqaltMW+fp8NNnzwSfOdXObD9+1ufskXNe5w6dZ5xvuuB+obHDrePg726/H+x072y86HGx+ZLnpZauMV3HLvtdPnkl8MqZq+yrF65FXuu6nnD95o0JN7pv8m4+u5Vz69Xtgtuf78y7S7hbek/9XsV9w/u1f9j+sbvbvfvog8AHHQ/jHt55xH304nHe4y89xU+oTyqemjyte+b87EhvcO+l5+Of97wQvfjcV/Knxp81L21eHvjL/6+O/nH9Pa/ErwZfL3mj/2bbW9e3rQPRA/ff5b77/L70g/6H7R8ZH9s/JX16+nnaF9KXyq+2X1u+hX+7O5g7OCjiiDmyXwEMNjQ9HYDX2wCgJgNAg/szynj5/k9miHzPKkPgP2H5HlFm7gA0wP/3mD74d3MDgD1b4PYL6qtNACCaCkC8J0BdXIbb0F5Ntq+UGhHuAzZGf03LTQP/xuR7zh/y/vkMpKqu4OfzvwD3zHxU7vyjSgAAADhlWElmTU0AKgAAAAgAAYdpAAQAAAABAAAAGgAAAAAAAqACAAQAAAABAAAA6qADAAQAAAABAAAA6AAAAACDzZKWAAAaOElEQVR4Ae2de4xdxX3HZ732rtn12tjYa+pHYgxxAK/TAqYPpRFQUtpUUZRCsGS1f0WmIWn/SasSqVilSFApEarKHy0gW5USFSHRQh+qqNoKBP0jKE0wTbFDi2vztIONXfCu13i9LNv7vde/e889j3vmnDPv+Y1sz3nO4zvz8e83c+aeM3Tknj2Ls//1I+FjGP/Mznaxx3fc0C3+Cjp2Me6e4A1WwDEFnnrrhHj67RN9pbpm1Qqxd2pr3zHsDJ398Q8Xj37rrsyJUA6kYWaQQ2lZv+uRBylqVAjqYivAooYMa1GTAuK0NSawi+7h46xAUwWKIEW6A0HFBbHCirrnhcnf+lr7MCwww5unEB+ro8AgSJFeKai4iGGFCsWB4S3Whs+UK1AGKVKQAhUXMqxQQS6Q68xWV06vmK+SgRT6SIOKixlWqFA9MLjVNYvhDllIoUUlUHEDwwoVmgVyldf/9t3NEuK7vVWgCqSoZGVQcRPDChXUBLK2DK0aPX1IpSqkqNPtm9eLOz6xPlO9ITyeyRxNHGBYE2Io2mRLq0hIh5OpAymqUxtU3MywQgU9gaHVo6vNVOtCijI3ApUqjUURgJaDHgUALbvGerQ1leqrZ2bFAweP1M6uCNQlVVLc+u19/PC/imAVrz35+GPilS9cJ0789aMV7+TLXVCgKaSD6lAJVCTEsA6SU805BlaNjiZT0Qkp6lEZVNzEsEIF/YGB1a+xihx0Q4oy1gIVNzKsUMFMYGDN6FwnFxOQoly1QcXNDCtUMBcYWHNay+RkClKUpRGoSIBhhQpmA4DlGXizmqdz0wXpta0fjueFxqAiUYY1T1q9x+jZNs8Q69U5L3VdkOblRceUgIrEACs9vKfEOdavAFtX/Ronc7ABKfJXBioSw8N6hhVKmA1sXc3obQtS1E4pqEiQYYUKdgKsK7vCerS3CSlqpBxUJMqwQgU7gWFVr7ttSFEjLaAiYYYVKtgJNG61k3t4uT6VeqWnzhpes2o8N3ltoCI3hjVXcyMHMW7FumH+EUUzuR84eFS8euZss0QU3K0VVJSPYVXQSg2S4Oet9cVzBVLUQDuoyIRhhQr2AmCdefYf7BXAw5xdghTyGQEVGTGsUMFe+OljDzGskvK7BimKbQxUZMawQgU7YW7mrPi/Jx5lWEvktwkpXmxWFIyCikIwrEVNof/49LF327Ceeniv/sw8zMEmpGVyGQcVBWJYy5pF33nAOnz6mGBY+zV2GVKU1AqoyJhhhQp2wvRxhjWpvOuQoqzWQEXmDCtUMB9gVRnWju4+QIqSWgUVBWBYoYK9ELMb7Bqk16zMX5WE3mEdVBSCYYUKZgNZVeQaI6yuQVrW+k6AikIyrGVNpfd8TLDiBdkuLAtMt2jR2x1wnTOgojAMK1QwF2BVkyEGWJu8xT6pleltp0BF5RlWs10Ak0rJEDKsvkKK9nEOVBQKsOLVLhz0KzA3nf1lSIiw+gwpeoGToKJg+Ewhwwol9AYsLcTfdAgJVl8gLfotKtrGWVBROIYVKugPeaAi1xBg9QXSslZ2GlQUnmEta0K9532GNRRI0cLOg4pCMqxQQV9Iz/6mc/IRVt8gHfTLGbSHF6CioAwrVNAXitxfytEnWH2DlDQeFHsDKirBsA5qymbnykBF6j7AGiKk0N4rUFFghhUq2Asuw+ozpIPW+aK1vQMVhQasO/755XaMfQ5mFXARVp8hlWk9L0GlivHHqUiJ5nHewodBqQLW9/Z+ddAlxs6FAOmgdb4Q0mtQUQGGFSo0DzJj1HQuS5csWoc1BEjTuubtew8qKsWw5jWtmWM2YY0FUrRkEKCiIgwrVLATbMAaGqSDlg+iVYMBFZVhWKGCnWAS1tAglWmxoEBFhRlWmWbPv6bOODWZkglYQ4S0bFUSNA4OVFSKYYUKdoJOWEOEVLaVggQVlQes/PVz2W6g9jodsIYMadliB7ROsKCicvy2CKhgJwDWd795p5JPaIQMKVqn7BkqrgkaVFSQYYUKcmF0ovjbJ3Ip9F+F9D564e8bwRo6pP2KFe8FDyqqzrAWdwATZ+rCypD2WicKUFFdhrXX6Da2qsL66plZ8fTbJ2wU1XieZc9QUaBoQEVlGVaoYC/IwgpIHzh4xF5BDeYs82gGxYkKVFSYYYUK2aB6fJrNoXOkDNaYIC3SKO94dKBCBIY1ryuYO1YEa4yQyjyaQctECSoqzrBCBXshDWuMkEJ9mUczuG4p/ok1AFaEk48/1ifBGxuv79vfcuxA336IO6Mr1T6akdGoDWvrwnd2fj6aMamMLnnXRA0qBEnCCkBfuHGPeGPjDRmtbvrh/vaxm/8jzDf4mxqjpoUFrAfeaX1W46pfSp+KYl9mxhdCDC22QhSKlFTywf3fFy9fvrPkqs5pQBsasOuuvkrYghWq/t6vfVNK+9Auevyzn5GqUrRj1KQ63/qXD6UhxX2wuvf/7g/E8z9/VzIZr7dtQgrhfuN/X/RavzqFl300g7SjBxWQHpkfrqNzkMDWEoJv0q5A1KA2gTTZMrCwPltX29YUWn7q/XeSkkaxfcfm9dL1jBZUVZCS0uQOp2eM6bzLsY0ZX5f1cLFsUYKqGtJkw373y494Z11dsKhJDWPZlp3xhR7RgaoTUupgvrvCVA+T8eHVm0xmZz2vKhNJKGxUoJqAlHqAT7C6YFEPr9lM0nGco0A0oJqElHT2AVY3IN0kDq+Jy6JWmUhCf4oCVBuQJmH97pf/knadi1duvNx6mZ65Ms5VSVWEDx5Um5BSQ2BJosuwUjltxbFZU+hcZSIJ1wcNqguQQmQEV2G17fo+c+UvdgSK6N+qE0mQJlhQ/+7ghdorjnT1GcDq0sII25BC52ciXIxfdXwKnYIEFZA+/gaq515waYLJ9vj04RvvdK+BHC1RcKC6DCn1AZdgpTKZjjEujXFsCp2rjk9xT1Cg+gApREcArDaXG8Ltten6xmpN64xP0V+CAdUnSCE8ApYb2oS1Uwrz/8YKKZSuMz7FfUGA6iOkEB8BltVGsDU+xSxvrC5vk3b2HlSfIUXD2XpsY8PtBaAxzvISoHB764xPcb/XoPoOKTWg6cc2tiCN2eWltq4bewtqKJBSw5mcXDLt9sKSMqT1x6foI16CGhqkSVhpW2ds0qIypL2WrOv2IgXvQA0VUjSGifGqSUhRJ15wDxXw7LTZe5O9AvWl191dcdRpjub/Aladj2xMub1kSRFzaOb2Qj+vQH3o5Y+iaHM8X9URYE1NWFSGNNt6TdxepOYNqLufPifmR+J5sb+vP4sjSLNdNd4jTd1eb0CNDVI0jA4XWLfbi8UMPLub/Q+p7mqkZErOW9QYIaUGUukC63Z7AWnMixmozfLipm4v0nQa1JghpQZX5QLrtKYMKbVWNlbh9iJVZ0FlSDuNrsoF1jWJBFeXLWkWUDqiwu1FWk7OzlSB9Pz0fFuTuYvx+TODZ4aXr+qv8ujKZWJ566/LAauWthz7Ru0i6oCUrWh5czRZ25tOvb/Xps9a2B8EKaAEkICRwKxaxOx9H/Yl0Qb3IsyuQExWte4HlVW7vQxpX5cp3FFlTZGBU99HzYMUcJ55+8PaYBaqWOFEEt5Vm8Yq3Kn20vv+4hcqJwhrim+fqgoMqbySst8+lUnRGYuahNQFOJPiwQqTJcZ/GrbAxYvRqn5AWZU1ZUCTPaJ8W9UkEuXkBKgEqWuAkkjpuAhc3a5yZ6z6Umu8eiBdpMJ9FeNThrRQ3sITKt1eZGIdVEA6c35RnDk83bVahbV39EQP3M54d9XmS9ol1eEmV5lYagopA1qvw6mcRKISWAUVL8g+dfJCewxKBQohhnuMgFg1tFUmlpq4vQxp/Z6o2pqiJNZA/fa/zYrv/6fdSaL6TSF/ZxpaFe6xjFWFNa1jURlQ+bbNu1KHNUU+VkDd9+xZ8dTzM3n1DPpYB9qee1zXNZaxqlWtKQOqpuvpsKYomfGVSYB033PxQZruBoD2rRdPixOHpsWZd86lT5fuw6oWharWlCEtUrLacV3WFKUwalEZ0mzD00QUjWdlrewgqyprTRnQbHs0ObJ3amuT2wfeawxUhnRgO7RPAlYCFgfKoM0bq8pYUwa0vC2qXnH75vVVb6l0vRFQGdJKbdKdBSdoi4A9umRMPDnxKTE9c1rMtEYxK8XHYmrJiLjpwoJYOzKcyZQBzUii7MAdn9ALqvYlhAypmr6AxzxJYD8+fkjMv/g98fG7/53J4LpLR8WuTRNi8yWd/4cZ0IxESg/snbqy9ou1ZQui1aLiZWQ8cSTbFIOvS7rFQ7MnxPLDT+VCilRe/mBOTI4Oi8tuuY1/gjZY1sZn4fKq+GF4WUG0gQpIv77/dFn+fL6iAgB29P3XxLI3Xxp457++vyAm1l1tflp/YKnCOolZXt0uLymm7fHM/mf5EQyJrDoennu3NMnFC3Ni4WT5daUJ8QWFCuh6ZpqXoRZQMS6FReXACoSqgCmXl/RTDiqPS0laffHC8p8pTXxodLkYniy/rjQhviCjgEmXlzJXPkZll5ek1RNP7nhBiLNnxcjyMTH3k+IVTSs+e7O4ZNNmsTB3QXzUcoM5qFEAkOpc2FBUSqWgsstbJHPz421AW8lMTrVAbYX5y1eJxfMfiwtHz7f3k/+M/dxOseKXbxbLJiaEaP2Zm+nMF1CcvJa3qylgclyaLJmy56g8y5uUVe02ICVAkynPvzUnpn/wvlg43nrB24eLQowNieVX7xBrbvmqGL50dfLS7jZgZWC7clTaMPG8tKhAyiwqu7xFEtc/XgRoN8W1S8Ti1LBY0vpL4YI4XAgprhltWVn8ZWBJMbnY9ORRulRKQIU15VnetLT190sBvZj0ufdmczOZOf5PYmLDF3PP0cEksDjGVpaUycaA1NTz0mzunSNKQGVrWiRvteOygCLV+XPz7b95OUxLgEr3AVgEtrKkSH98y6bLW5BO9h+0sNcYVLamzVsNgI5Pvtn6+4Z0YvOznRePF90gY1XT95KV/ag1U7zQmimO2couHRkVn5tcLfZ80j6kaKfGz1HZmqa7e7V9sqJVIEUO507lu72UO6xq3bB0dKRtYVdu2NAd09ZNy8f7AOnUujXOQAoNG1lUtqb1uyEBWicFuL0yoY5VTaebdo1xPmRLO3bZWrFt+TLxh1vWpaWwut8IVLam1dsOlnN8/Zu5j1tkUyuaRErfD6s6MrGtZRW3pU/V2g8ZWnL7tw4tOgcpGqs2qGxNq/f1JlaUchs0iUTXJGNY1dFP/37ykJLtUKCFmzvSmlCDu+8qpGiw2qCyNZXv77Cikzv+vdJkUVHqstaU7p+bea3lqr6mzKpSusk4CS2Ok2tMcfJaV7aTgKJMLkOK8tUCla0ppJMLKqxoMifZ8WnyHl1WNZlHcrsIXNvrjtNwUpldhxTlrAUqW1Nq4sGxC5CihCas6iAlCFysO0agxz/Y1gUvoESAW4sA1zYv+AApyl15rS+sKb+5Ia/Je8fg6l5x6/d6BxRtnXnzg8JFDjJZbNz5qMxl1q4BwAh4hpsMgLkoDCcAHL4IZxGU6TR8gRTlrmVR0xXm/Z4Cqq0opVx1EonuS8YqHtck01O9TYBR3E3/oiXu7ivY8AlSVLfyggd2e4t7iS5IkWPVSaS8UuJxDdzg2INvkKK9KoHKk0jFXVwnpMi1ziRSXmlhVWMOPkKK9qrk+rI1zXZxlY9esql3jqiCFKnBorruAhfp0PS4r5Ci3pVAhUXl0FNA16RRL4fOlgq3N5mm6hVLybRd3fYZUmgq7foypP1d0BSkKiaR+kve2YvJBZ5ozSK7tnY3r00GHZMGld3enowYj+p4/NLLQf8WucD6c7Kbw+jCgvjOpzfaLYSC3KVBZYvaUVv3pFG6TVW7vcn0Q58FBqR/fpXejzcl9dS5LQUqQ9ppgvbE0cW3AOpsFEpbl9tL6SMO1QUOCVK0kxSo7PaK9oJ60+6uTmuKxkcI0QUODVK0kxSouDDmYGriyJbGIbnAIUKKflEKKtze2F1f/ETNdDDh9ibrdOp//sz7VUuhQop2KgU12ZgxbsPdhUWNIfg8Xg0ZUvS9UlBjHp9ihtcWpCbGp+n/fHwdr4YOqRSosbq9pmd409CoXDaYTnvQPsarPlnWGCAtBTVWSCGMjXEpAWQLUsrfF1hjgRTtUur6UuPFFNt0eaGzDbc33b6uzwTHBCnaZiCoMY5Pbbu8aBTbFhVlQHB5Jvhr61Z0ChnJvwNBjdH1tenyos+5Ain1fxdhvX1iVFyzapyKGEVcCGqMkMKa2prldbm3uTS5BEh/da2Gd7O43ACtshWC6ni5tRTPtjVFpVwYn6bFxWMbWFbbIVZIoXshqLGOT213RtdcX9KDYEVsI8QMKfQuBNVGY9jM0wWX11VIqV1swRo7pNC/ENTYxqguuL0EhOuxyQkmhrTTG3JBjQ1SV8BwcXxapA1g1T3JxJD21M8FtXc6ni0XXF/f1Na5gokh7e8NuaDGOJHUL4udPdfHqHmqAFbVrjBDmlU6F9TsZXxEtwI+Qkqa0CSTCleYISVV++NcUGMco548eFO/MrxXWQFY12M/urv22JUhLZY88wLuGCGFPLMnPinEVLFQus/Mz87rzsJY+gCWwsSGL9LmwHjb0NnWiqO1A6+J+WQG1FjFmD25RYjjPyvEhh9bkWD+XFhfISBYEa9swToysS33q+dwm+EyH2vFnx+/X+xYt92K/q5nmvk+6r5nz4p9z824Xm7l5bvhihHxyJ7LxIOHviOOLL6uPP2yBJt++7QsfVfOj7aApZC3ymn39l1i97W76BKOLyqQGaMeeL3/I7IxKEWQoq73br9HXDl0RQzVtlJHwEl/8wrwxKEnxRM/eTLvVNTHMqDGpkYSUqq7DVh9nvUl3VTFDGtWyQyoMU0m5UFKEtmAlfLmWAiGtb8XZEDtPx3u3iBIqdamYGVrSor3xwxrT48+UGOypntulfvxsSlYe03CW0kFGNaOGn2gJgUKeRuzu7CosoFhlVVKz3UMa+pnbgeOhvUsL6/bVIWU0mBYSQk7ceyw9lnU0B/N1IWUuiZg3Tl0He1ybFiBmGHtA9Ww7kazawopFfYb239H3Ln6N2lXSRzS8kElggxIJFZY+0ANdTJJFaTUf76w8TblsFLaHJcrECOsfaCWS+TfFaohJQUYVlLCThwbrF1QQ7SmuiClrqkK1mXjyyhJjisoEBOsXVAr6OPFpbohJRFUwUrpcVxNgVhgDRJUU5BSl2JYSQk7cQywdkEN5RmqaUipazKspISdOHRYe6AG8PM2W5BS16wL67IxHqOShk3ikGHtgtpEIBfuvetXJiotC9RVZsD6V1OPiNF5+SWKusoSY7qhwhoEqID0rlvd+l7mI9c9XAlWtqrq/lsBrPe+cJ+6BB1IqQuqr49nXISU2rUKrMvG2AKTbiriV04eCgrWLqgqxDGdhsuQkhZVYKV7OFajQEiweguqD5BSd5OBlRc9kFpq41BgbYPqm9vrE6TU7cpg5TEqKaU+DgFW7yyqj5BS1yuDdWztOF3KsWIFfIfVK1B9hpT6XRmsdB3H6hXwGdY2qD6sSgoBUup6gHWNWE273Xhs3Vh3mzf0KOArrF5Y1JAgpe730NSf5r7om91fUkhfDFi/9DdfEa+8d0hfJopTdh7UECGlNuT3MJESduJ7n7/PG1g7rq+j63xDhpS6ZhpWdn9JGTOxL7A6a1FjgJS6YgZWnv0laYzEPsDqJKgxQUo9MQkrW1VSxVzsOqzOgRojpNQd+2Blq0qyGItdhrUNqisrk2KGlHojwcpWlRQxG7sKqzMWlSHtdcgurGxVe6IY3HIRVidAZUizvRCw7pjcLvi5alYbE0dcg9U6qAxpcbcjWHnBfrFGOs8AVle+fr7E5viUIS3vZoD1+i38vZtypfRc4cqrXaxZVIZUvmMB1l+/9jb5G/hKpQq4AKsVUBnS6v0IH6favX1X9Rv5DiUK2IbVOKgMaf1+s/vaXQxrffka32kTVqOg4ivfrr0tsHHrGU6AYTUseCo7W7AaAxWQ4gXZHJorAFgfvPn+5glxCrUUsAHrEhM/GmdIa/WHgTftWLdd/OOdf9t+1jrwQj6pRQHTsGq3qAypln7STfTBm+7ncWtXDbMbJmHVCipDaqbj8LjVjM55uZiCVRuoDGles+o7BljhCvMjHH0aF6VsAlYtoDKkRU2q/zhbV/0a5+WgG9bhjZ/7gz/56QcLeXnXOsaQ1pJN6U2YaGpb1iEhDnr0Ai+lIlhIrK11S3PorzoM7/zSPcpAZUhVN0+z9BjYZvrVuVsXrEvrFCbvHoY0TxU3jsEdpgAXjYNeBUjjpO5Nc1QCKkPatBn035/uNNSZ9OccZw6kb1r3umo0BpUhrSu9nfuo40y1xlFw06hD2SlN2LmStqR5k9o2HqP+8VcuFRtWDzcpA99rQYH145PtSQ+edNIrvqox69Dd+04t1v3xONbuwqJyCEMBepsBWYIwauVGLfBaHawiqxtqg8qQ1pXcj/sALawBvtPCQY0CTWCtBSpDqqbhfEmFoVXXUnVhrQwqQ6qu0XxMid3j5q1WB9ahG//o+KJs1gyprFJxXMfQ1m/nqrBKg8qQ1m+UWO4kcHlsK9fiVWCVApUhlROer+pXgMHt1yNvTxbWUlAZ0jx5+VhdBRjerHIysA4ElSHNispH1CvwSusxUHthQCvpmN1mvAer6Jc3haAypOo7JKdYTYEkwLiTYA752S5+/J8Xctf6MqR5UvEx0wrAuhRZGJQlDTKO+Q4z6pRX56V4Ifa+52ZQx3bAPi8LJDU4dlmBMpCp7Oj8CAQxHU/uu2KlUaY8UIcWW+Hr+0+L668YFddvHWFIqRU5jl4BAjwpRBLu5HFsDzqH82X/GeAHEkW/tGmDikQ4sAKsgLsKaHm5mbvV5ZKxAn4qwKD62W5c6sgUYFAja3Curp8KMKh+thuXOjIFGNTIGpyr66cC/w99EjqAyRjMjwAAAABJRU5ErkJggg==;" vertex="1" parent="UEzPUAAOIrF-is8g5C7q-175">
          <mxGeometry width="25.22" height="25" as="geometry" />
        </mxCell>
        <mxCell id="LUkZF66Wxw7TiblQxwdm-7" style="edgeStyle=orthogonalEdgeStyle;rounded=0;orthogonalLoop=1;jettySize=auto;html=1;fontSize=14;endArrow=classic;endFill=1;" edge="1" parent="1" source="LUkZF66Wxw7TiblQxwdm-1" target="UEzPUAAOIrF-is8g5C7q-176">
          <mxGeometry relative="1" as="geometry">
            <Array as="points">
              <mxPoint x="353" y="-710" />
            </Array>
          </mxGeometry>
        </mxCell>
        <mxCell id="LUkZF66Wxw7TiblQxwdm-17" style="edgeStyle=orthogonalEdgeStyle;rounded=0;orthogonalLoop=1;jettySize=auto;html=1;entryX=0;entryY=0.5;entryDx=0;entryDy=0;fontSize=12;" edge="1" parent="1" source="LUkZF66Wxw7TiblQxwdm-9" target="LUkZF66Wxw7TiblQxwdm-3">
          <mxGeometry relative="1" as="geometry" />
        </mxCell>
        <mxCell id="LUkZF66Wxw7TiblQxwdm-9" value="&lt;p style=&quot;margin: 0px; font-variant-numeric: normal; font-variant-east-asian: normal; font-stretch: normal; line-height: normal; font-family: &amp;quot;Helvetica Neue&amp;quot;; color: rgb(0, 0, 0); text-align: start;&quot; class=&quot;p1&quot;&gt;&lt;font style=&quot;font-size: 12px;&quot;&gt;subscriptions-pg12&lt;/font&gt;&lt;/p&gt;" style="sketch=0;points=[[0,0,0],[0.25,0,0],[0.5,0,0],[0.75,0,0],[1,0,0],[0,1,0],[0.25,1,0],[0.5,1,0],[0.75,1,0],[1,1,0],[0,0.25,0],[0,0.5,0],[0,0.75,0],[1,0.25,0],[1,0.5,0],[1,0.75,0]];outlineConnect=0;fontColor=#232F3E;gradientColor=#4D72F3;gradientDirection=north;fillColor=#3334B9;strokeColor=#ffffff;dashed=0;verticalLabelPosition=bottom;verticalAlign=top;align=center;html=1;fontSize=12;fontStyle=0;aspect=fixed;shape=mxgraph.aws4.resourceIcon;resIcon=mxgraph.aws4.rds;dashPattern=1 1;labelBackgroundColor=none;labelBorderColor=none;" vertex="1" parent="1">
          <mxGeometry x="84" y="-560" width="78" height="78" as="geometry" />
        </mxCell>
        <mxCell id="LUkZF66Wxw7TiblQxwdm-18" style="edgeStyle=orthogonalEdgeStyle;rounded=0;orthogonalLoop=1;jettySize=auto;html=1;entryX=0;entryY=0.5;entryDx=0;entryDy=0;fontSize=12;" edge="1" parent="1" source="LUkZF66Wxw7TiblQxwdm-10" target="LUkZF66Wxw7TiblQxwdm-8">
          <mxGeometry relative="1" as="geometry" />
        </mxCell>
        <mxCell id="LUkZF66Wxw7TiblQxwdm-10" value="&lt;p style=&quot;margin: 0px; font-variant-numeric: normal; font-variant-east-asian: normal; font-stretch: normal; line-height: normal; font-family: &amp;quot;Helvetica Neue&amp;quot;; color: rgb(0, 0, 0); text-align: start;&quot; class=&quot;p1&quot;&gt;&lt;font style=&quot;font-size: 12px;&quot;&gt;ipsy-db&lt;/font&gt;&lt;/p&gt;" style="sketch=0;points=[[0,0,0],[0.25,0,0],[0.5,0,0],[0.75,0,0],[1,0,0],[0,1,0],[0.25,1,0],[0.5,1,0],[0.75,1,0],[1,1,0],[0,0.25,0],[0,0.5,0],[0,0.75,0],[1,0.25,0],[1,0.5,0],[1,0.75,0]];outlineConnect=0;fontColor=#232F3E;gradientColor=#4D72F3;gradientDirection=north;fillColor=#3334B9;strokeColor=#ffffff;dashed=0;verticalLabelPosition=bottom;verticalAlign=top;align=center;html=1;fontSize=12;fontStyle=0;aspect=fixed;shape=mxgraph.aws4.resourceIcon;resIcon=mxgraph.aws4.rds;dashPattern=1 1;labelBackgroundColor=none;labelBorderColor=none;" vertex="1" parent="1">
          <mxGeometry x="84" y="-430" width="78" height="78" as="geometry" />
        </mxCell>
        <mxCell id="LUkZF66Wxw7TiblQxwdm-11" value="&amp;nbsp; &amp;nbsp; sources" style="points=[[0,0],[0.25,0],[0.5,0],[0.75,0],[1,0],[1,0.25],[1,0.5],[1,0.75],[1,1],[0.75,1],[0.5,1],[0.25,1],[0,1],[0,0.75],[0,0.5],[0,0.25]];outlineConnect=0;gradientColor=none;html=1;whiteSpace=wrap;fontSize=12;fontStyle=0;shape=mxgraph.aws4.group;grIcon=mxgraph.aws4.group_aws_cloud_alt;strokeColor=#232F3E;fillColor=none;verticalAlign=top;align=left;spacingLeft=30;fontColor=#232F3E;dashed=0;labelBackgroundColor=#ffffff;container=1;pointerEvents=0;collapsible=0;recursiveResize=0;" vertex="1" parent="1">
          <mxGeometry x="4" y="-600" width="220" height="310" as="geometry" />
        </mxCell>
        <mxCell id="LUkZF66Wxw7TiblQxwdm-16" value="" style="rounded=0;whiteSpace=wrap;html=1;shadow=0;labelBackgroundColor=#000033;labelBorderColor=none;sketch=0;strokeColor=none;strokeWidth=1;fontSize=12;fillColor=default;gradientColor=none;" vertex="1" parent="LUkZF66Wxw7TiblQxwdm-11">
          <mxGeometry width="25" height="25" as="geometry" />
        </mxCell>
        <mxCell id="LUkZF66Wxw7TiblQxwdm-39" value="" style="shape=image;verticalLabelPosition=bottom;labelBackgroundColor=default;verticalAlign=top;aspect=fixed;imageAspect=0;image=https://d33wubrfki0l68.cloudfront.net/b0ab2f1c28ea75eab1d88515835638e606a87795/1fd34/assets/images/observe-img.png;" vertex="1" parent="LUkZF66Wxw7TiblQxwdm-11">
          <mxGeometry width="45.11" height="30" as="geometry" />
        </mxCell>
      </root>
    </mxGraphModel>
  </diagram>
</mxfile>
